<?xml version="1.0" encoding="utf-8"?>
<!-- Generator: Adobe Illustrator 27.0.0, SVG Export Plug-In . SVG Version: 6.00 Build 0)  -->
<svg version="1.1" id="Layer_1" xmlns="http://www.w3.org/2000/svg" xmlns:xlink="http://www.w3.org/1999/xlink" x="0px" y="0px"
	 viewBox="0 0 78.13 31.73" style="enable-background:new 0 0 78.13 31.73;" xml:space="preserve">
<style type="text/css">
	.st0{fill:#009CB4;}
</style>
<g>
	<path class="st0" d="M31.05,6.3c1.43-0.58,3.02-0.84,4.68-0.71c5.01,0.39,9.06,4.45,9.45,9.45c0.5,6.35-4.77,11.61-11.12,11.11
		c-5.03-0.4-9.09-4.49-9.45-9.52c-0.26-3.69,1.42-7,4.12-9.02c0.26-0.19,0.31-0.56,0.13-0.82c-2.99-4.27-8.02-7-13.68-6.76
		C6.7,0.37-0.08,7.52,0,16.02c0.08,8.69,7.15,15.71,15.87,15.71c2.65,0,5.15-0.65,7.35-1.8c0.38-0.2,0.45-0.71,0.13-0.99
		c-1.09-0.97-2.06-2.07-2.88-3.28c-0.17-0.24-0.47-0.33-0.74-0.22c-1.43,0.57-3.01,0.84-4.67,0.71c-5.07-0.39-9.15-4.55-9.47-9.62
		C5.2,10.53,9.95,5.56,15.87,5.56c1.88,0,3.65,0.51,5.17,1.39c0.3,0.17,0.39,0.55,0.22,0.85c-1.53,2.59-2.35,5.64-2.19,8.9
		c0.4,7.98,6.84,14.5,14.81,15.01c9.58,0.61,17.48-7.3,16.86-16.89C50.22,6.95,43.88,0.58,36.02,0.04
		c-3.07-0.21-5.97,0.45-8.47,1.76c-0.38,0.2-0.45,0.71-0.13,0.99c1.09,0.97,2.06,2.07,2.88,3.28C30.47,6.32,30.78,6.41,31.05,6.3"/>
	<path class="st0" d="M72.58,0.77v30.2c0,0.3,0.22,0.56,0.51,0.6c1.5,0.22,3.02,0.22,4.52,0c0.3-0.04,0.51-0.3,0.51-0.6V0.77
		c0-0.3-0.22-0.56-0.51-0.6c-1.5-0.22-3.02-0.22-4.52,0C72.8,0.21,72.58,0.47,72.58,0.77"/>
	<path class="st0" d="M58.9,0.04c-2.21-0.16-4.31,0.22-6.19,1.03c-0.22,0.1-0.36,0.32-0.36,0.56v29.33c0,0.3,0.22,0.56,0.51,0.6
		c1.5,0.22,3.02,0.22,4.52,0c0.3-0.04,0.51-0.3,0.51-0.6v-4.19c0-0.33,0.26-0.59,0.59-0.61c7.23-0.32,12.93-6.51,12.47-13.91
		C70.56,5.79,65.35,0.51,58.9,0.04 M57.9,19.99V6.19c0-0.36,0.31-0.64,0.66-0.61c3.85,0.34,6.87,3.57,6.87,7.51
		c0,3.94-3.02,7.17-6.87,7.51C58.21,20.63,57.9,20.34,57.9,19.99"/>
</g>
</svg>
